<svg xmlns="http://www.w3.org/2000/svg" width="187" height="141" viewBox="0 0 248.635 187.562" shape-rendering="geometricPrecision" text-rendering="geometricPrecision" image-rendering="optimizeQuality" fill-rule="evenodd" clip-rule="evenodd"><defs><style>.fil0{fill:#fff;fill-rule:nonzero}</style></defs><g id="Layer_x0020_1"><g id="_676303912"><path class="fil0" d="M181.423 33.747l-.012-.013c-9.086 3.852-17.657 9.453-26.315 16.871-.765-9.501.067-14.383-7.278-19.57l-4.344 14.253c-4.903-6.257-11.518-14.154-20.167-17.264.337 37.308 22.832 32.214 15.01 55.468-2.254 6.701-3.216 13.397-5.031 20.711-13.382-38.918-31.802-60.896-64.5-72.209a132.185 132.185 0 00-3.83-1.255l-.404-.124a134.467 134.467 0 00-3.87-1.132C44.131 24.926 24.243 22.629 0 21.962c.285.512.795.647.998 1.475l8.503 9.796c12.934 16.511 8.77 26.323 16.938 41.079 3.436 6.207 8.808 12.361 15.33 17.821a88.325 88.325 0 008.937 6.555c7.069 4.539 14.9 8.192 22.857 10.348 6.098 1.653 10.889 2.381 14.596 2.381 22.01 0 5.762-25.71-2.86-36.56-15.637-19.676-35.164-26.003-47.186-34.479C78.1 45.14 123.189 90.332 123.97 140.839c.094 6.131-2.423 38.159-3.445 46.723l7.262-5.057c3.077-28.219 7.942-80.367 21.866-104.875 8.076-14.216 37.642-37.53 63.632-39.329-6.58 4.491-47.305 15.2-45.762 34.808 4.828 2.671 10.157 3.768 15.551 3.768 5.493 0 11.046-1.149 16.208-2.922a64.06 64.06 0 003.598-1.355l.148-.064a63.267 63.267 0 003.459-1.558c4.358-2.122 8.178-4.579 11.07-6.97 7.766-6.416 7.95-8.624 13.866-17.738 6.06-9.334 10.152-8.183 17.212-14.245-12.967-3.077-24.357-4.625-34.686-4.625-8.948 0-17.094 1.177-24.784 3.514l.015.018a77.829 77.829 0 00-7.757 2.815zM202.88 72.6z"/><path class="fil0" d="M199.631 82.79c0 37.384-27.385 68.472-63.146 74.308a1054.94 1054.94 0 00-.935 8.001c40.519-5.503 71.856-40.306 71.856-82.309 0-1.926-.071-3.836-.204-5.728a69.865 69.865 0 01-7.658 2.928c.037.931.087 1.859.087 2.8zm6.856-11.812zm-82.965 87.106l-.084-.003a316.55 316.55 0 01-.583 7.758c.081.001.16.007.241.008.168-2.648.31-5.25.426-7.763zM41.769 92.133zm11.191 14.673a96.859 96.859 0 01-9.784-6.239c7.66 34.984 37.414 61.764 73.852 64.949.232-2.651.424-5.209.582-7.737-30.183-2.678-55.286-23.226-64.65-50.973zm128.463-73.059a77.829 77.829 0 017.757-2.815l-.015-.018a77.56 77.56 0 00-7.754 2.82l.012.013zM68.786 31.994zm-8.104-2.511zM117.29 0C96.899 1.719 78.607 10.857 65.061 24.67c2.875.852 5.621 1.782 8.284 2.769C85.148 16.556 100.411 9.377 117.29 7.805V0zm14.054 7.805c17.797 1.656 33.8 9.544 45.842 21.435a85.365 85.365 0 017.812-3.097C171.325 11.505 152.456 1.779 131.344.001v7.804zm-66.792 22.81l.404.124-.404-.124zm138.476 41.921l-.148.064.148-.064z"/></g></g></svg>