<svg xmlns="http://www.w3.org/2000/svg" width="975" height="141" viewBox="0 0 1034.269 149.886" shape-rendering="geometricPrecision" text-rendering="geometricPrecision" image-rendering="optimizeQuality" fill-rule="evenodd" clip-rule="evenodd"><defs><style>.fil1{fill:#fff;fill-rule:nonzero}</style></defs><g id="Layer_x0020_1"><path d="M0 117.381v-7.754h46.527v-7.756H7.754L0 94.117v-7.755l7.754-7.754h31.019v7.754H7.754v7.755h38.773l7.755 7.754v7.756l-7.755 7.754H0zm62.036 0V63.099h7.755v15.509h38.772l7.755 7.754v31.019h-7.755V86.362H69.791v31.019h-7.755zm108.564-7.754v-7.756h-38.772v7.756H170.6zm-38.772 7.754l-7.756-7.754v-7.756l7.756-7.754H170.6v-7.755h-31.018v-7.754H170.6l7.755 7.754v31.019h-46.527zm54.281 0V78.608h46.527l7.756 7.754v31.019h-7.756V86.362h-38.772v31.019h-7.755zm77.546 0l-7.754-7.754V86.362h-7.755v-7.754h7.755v-7.754h7.754v7.754h23.264v7.754h-23.264v23.265h31.019v7.754h-31.019zm85.3-23.264v-7.755h-38.772v7.755h38.772zm-38.772 23.264l-7.755-7.754V86.362l7.755-7.754h38.772l7.755 7.754v7.755l-7.755 7.754h-38.772v7.756H341.2v7.754h-31.017zm100.809-7.754v-7.756h-38.773v7.756h38.773zm-38.773 7.754l-7.754-7.754v-7.756l7.754-7.754h38.773v-7.755h-31.018v-7.754h31.018l7.755 7.754v31.019h-46.528zm243.303 0l-7.755-7.754V86.362l7.755-7.754h38.773v7.754h-38.773v23.265h38.773v7.754h-38.773zm93.055-7.754V86.362h-38.773v23.265h38.773zm-38.773 7.754l-7.755-7.754V86.362l7.755-7.754h38.773l7.754 7.754v23.265l-7.754 7.754h-38.773zm54.282 0V78.608h46.527l7.755 7.754v31.019h-7.755V86.362h-38.772v31.019h-7.755zm77.546 0l-7.755-7.754V86.362h-7.755v-7.754h7.755v-7.754h7.755v7.754h23.263v7.754h-23.263v23.265h31.018v7.754h-31.018zm38.772 0V86.362l7.755-7.754h38.773v7.754h-38.773v31.019h-7.755zm100.809-7.754V86.362h-38.772v23.265h38.772zm-38.772 7.754l-7.754-7.754V86.362l7.754-7.754h38.772l7.755 7.754v23.265l-7.755 7.754h-38.772zm62.037 0l-7.755-7.754V63.099h7.755v46.528h7.754v7.754h-7.754zm15.509 0v-7.754h46.527v-7.756h-38.773l-7.754-7.754v-7.755l7.754-7.754h31.019v7.754h-31.019v7.755h38.773l7.755 7.754v7.756l-7.755 7.754h-46.527z" fill="#fff"/><g id="_669437120"><path class="fil1" d="M562.77 26.968l-.01-.01c-7.261 3.078-14.11 7.554-21.028 13.482-.612-7.592.053-11.494-5.817-15.639l-3.471 11.39c-3.918-5.001-9.204-11.311-16.116-13.796.269 29.813 18.245 25.743 11.995 44.326-1.802 5.355-2.57 10.706-4.02 16.551-10.694-31.101-25.415-48.665-51.545-57.705a107.567 107.567 0 00-3.06-1.003l-.323-.099a107.112 107.112 0 00-3.092-.904c-13.227-3.642-29.12-5.478-48.493-6.011.228.409.635.517.798 1.179l6.795 7.828c10.336 13.195 7.008 21.036 13.535 32.828 2.746 4.96 7.039 9.878 12.251 14.241a70.423 70.423 0 007.142 5.238c5.649 3.628 11.906 6.547 18.266 8.27 4.873 1.32 8.701 1.902 11.664 1.902 17.588 0 4.604-20.545-2.286-29.216-12.496-15.724-28.101-20.78-37.708-27.553 31.955 3.805 67.987 39.92 68.611 80.281.075 4.899-1.936 30.494-2.753 37.338l5.803-4.041c2.459-22.551 6.346-64.224 17.474-83.809 6.453-11.36 30.08-29.991 50.85-31.429-5.258 3.589-37.803 12.147-36.57 27.817 3.859 2.134 8.117 3.011 12.427 3.011 4.39 0 8.827-.919 12.952-2.335a50.648 50.648 0 002.876-1.084l.119-.05c.946-.394 1.87-.81 2.764-1.245 3.482-1.696 6.534-3.66 8.846-5.571 6.205-5.127 6.353-6.891 11.08-14.174 4.844-7.459 8.113-6.54 13.755-11.384-10.362-2.459-19.464-3.696-27.719-3.696-7.15 0-13.66.941-19.805 2.808l.012.014a62.586 62.586 0 00-6.199 2.25zm17.147 31.048z"/><path class="fil1" d="M577.321 66.159c0 29.875-21.884 54.719-50.462 59.382a822.056 822.056 0 00-.747 6.394c32.38-4.397 57.422-32.209 57.422-65.776a65.45 65.45 0 00-.163-4.577 55.766 55.766 0 01-6.12 2.34c.03.744.07 1.486.07 2.237zm5.479-9.438zm-66.3 69.608l-.068-.002c-.125 2.011-.279 4.06-.465 6.199.064.001.128.006.192.007.134-2.116.248-4.196.341-6.204zm-65.331-52.703zm8.943 11.725a77.2 77.2 0 01-7.818-4.985c6.121 27.957 29.898 49.357 59.017 51.903.184-2.119.338-4.164.464-6.184-24.12-2.14-44.18-18.56-51.663-40.734zM562.77 26.968a62.586 62.586 0 016.199-2.25.174.174 0 01-.012-.014 62.165 62.165 0 00-6.197 2.254l.01.01zm-90.012-1.401zm-6.475-2.006zM511.52 0c-16.296 1.373-30.913 8.676-41.738 19.714a104.11 104.11 0 016.62 2.213c9.432-8.697 21.629-14.434 35.118-15.69V0zm11.231 6.237c14.221 1.323 27.01 7.627 36.634 17.129a68.008 68.008 0 016.242-2.474C554.701 9.194 539.622 1.422 522.751.001v6.236zm-53.376 18.228l.323.099c-.107-.034-.216-.066-.323-.099zm110.661 33.501l-.119.05.119-.05z"/></g></g></svg>